<?xml version="1.0" encoding="utf-8"?>
<!-- Generator: Adobe Illustrator 16.0.0, SVG Export Plug-In . SVG Version: 6.00 Build 0)  -->
<!DOCTYPE svg PUBLIC "-//W3C//DTD SVG 1.1//EN" "http://www.w3.org/Graphics/SVG/1.1/DTD/svg11.dtd">
<svg version="1.1" id="Layer_1" xmlns="http://www.w3.org/2000/svg" xmlns:xlink="http://www.w3.org/1999/xlink" x="0px" y="0px"
	 width="96.359px" height="77.666px" viewBox="0 0 96.359 77.666" enable-background="new 0 0 96.359 77.666" xml:space="preserve">
<path fill="#474747" d="M25.519,20.411c2.221-1.072,4.481-1.042,6.725-1.865c1.303-0.478,1.873-1.702,3.013-2.615
	c2.173-1.741,4.59-1.896,7.251-2.438c3.43-0.699,6.825-0.945,10.313-1.125c2.326-0.121,5.418-0.794,7.467,0.587
	c1.147,0.775,1.644,2.199,2.883,2.85c1.297,0.68,2.845,0.464,4.242,0.557c1.649,0.109,3.225,0.63,4.631,1.531
	c2.796,1.792,6.057,4.133,8.281,6.601c0.984,1.092,1.823,2.422,2.49,3.736c0.722,1.422,0.613,2.799,0.971,4.251
	c0.408,1.664,0.766,3.403,1.131,5.174c0.431,2.093,0.917,4.452,0.402,6.52c-0.193,0.771-0.646,1.457-0.881,2.194
	c-0.518,1.623-0.357,3.115-0.65,4.832c-0.231,1.351-1.524,3.24-2.519,4.134c-0.537,0.483-1.172,0.735-1.856,0.934
	c-0.924,0.268-2.44-0.098-3.241,0.341c-1.121,0.613-1.097,2.634-1.533,3.79c-0.425,1.125-1.745,2.463-2.598,3.34
	c-2.356,2.426-5.682,2.748-8.875,2.748c-3.054,0-5.783-1.037-8.128-2.959c-1.482-1.215-2.905-2.912-3.906-4.513
	c-0.428-0.687-0.896-2.227-1.564-2.559c-0.858-0.426-2.083,0.308-2.904,0.558c-1.402,0.428-2.879,0.672-4.353,0.878
	c-2.095,0.293-4.655,0.296-6.633-0.397c-2.679-0.94-4.728-2.324-7.077-3.812c-2.399-1.52-5.422-1.13-8.091-1.723
	c-1.901-0.423-4.234-0.601-5.787-1.845c-1.931-1.548-2.327-3.761-2.938-5.998c-0.468-1.712-0.969-3.048-0.619-4.79
	c0.3-1.492,0.758-2.764,1.497-4.083c0.927-1.656,2.179-2.929,3.826-3.863c1.461-0.827,2.055-1.189,2.557-2.806
	C20.163,24.98,22.021,22.101,25.519,20.411z"/>
<path fill="none" stroke="#FFFFFF" stroke-width="2" stroke-linecap="round" stroke-miterlimit="10" d="M46.982,48.646
	c-0.133,2.221-1.896,3.637-3.737,4.632c-2.688,1.454-5.8,3.694-9.138,2.743"/>
<path fill="none" stroke="#FFFFFF" stroke-width="2" stroke-linecap="round" stroke-miterlimit="10" d="M42.636,14.676
	c1.248,1.562,3.396,3.041,2.756,5.25c-0.789,2.724-3.432,2.567-1.817,6.273c0.951,2.185,3.317,3.583,2.811,6.475
	c-0.362,2.067-2.574,2.723-3.999,4.002"/>
<path fill="none" stroke="#FFFFFF" stroke-width="2" stroke-linecap="round" stroke-miterlimit="10" d="M49.62,13.508
	c4.032,1.628,10.419,15.146,4,17"/>
<path fill="none" stroke="#FFFFFF" stroke-width="2" stroke-linecap="round" stroke-miterlimit="10" d="M54.37,18.008
	c3.246,1.359,5.203,0.816,7.383,3.624c1.105,1.424,1.962,3.094,2.867,4.626"/>
<path fill="none" stroke="#FFFFFF" stroke-width="2.2082" stroke-linecap="round" stroke-miterlimit="10" d="M13.974,35.361
	c8.871,3.364,17.869-4.526,14.629-11.75"/>
<path fill="none" stroke="#FFFFFF" stroke-width="2.1479" stroke-linecap="round" stroke-miterlimit="10" d="M12.228,40.861
	c1.573,0.411,1.697-0.755,3.157-1.013c1.42-0.252,2.549,0.192,3.763,0.513c2.818,0.744,4.93,1.53,8.139,1.25
	c6.469-0.564,12.06-6.548,8.009-11.75"/>
<path fill="none" stroke="#FFFFFF" stroke-width="1.1988" stroke-linecap="round" stroke-miterlimit="10" d="M70.709,17.916
	c0.468,1.755-2.234,2.163-3.85,2.917"/>
<path fill="none" stroke="#FFFFFF" stroke-width="1.6824" stroke-linecap="round" stroke-miterlimit="10" d="M83.718,45.541
	c-1.579-1.048-3.096-1.325-4.181-3.039c-0.723-1.143-1.058-2.553-1.779-3.69c-1.424-2.242-3.415-3.466-6.04-3.273"/>
<path fill="none" stroke="#FFFFFF" stroke-width="2" stroke-linecap="round" stroke-miterlimit="10" d="M74.859,56.25
	c-3.544-4.337,0.886-11.305-5.5-14.5"/>
<path fill="none" stroke="#FFFFFF" stroke-width="2" stroke-linecap="round" stroke-miterlimit="10" d="M33.642,55.475
	c2.132-1.839,2.763-6.521,4.812-8.964c2.373-2.828,6.767-5.706,10.506-6.298c5.636-0.892,15.518,1.625,15.432,8.762"/>
<path fill="none" stroke="#FFFFFF" stroke-width="2" stroke-linecap="round" stroke-miterlimit="10" d="M50.745,40.694
	c2.494,1.662,5.121,3.616,5.5,6.75"/>
</svg>
