<?xml version="1.0" encoding="utf-8"?>
<!-- Generator: Adobe Illustrator 16.0.0, SVG Export Plug-In . SVG Version: 6.00 Build 0)  -->
<!DOCTYPE svg PUBLIC "-//W3C//DTD SVG 1.1//EN" "http://www.w3.org/Graphics/SVG/1.1/DTD/svg11.dtd">
<svg version="1.1" id="Layer_1" xmlns="http://www.w3.org/2000/svg" xmlns:xlink="http://www.w3.org/1999/xlink" x="0px" y="0px"
	 width="62.828px" height="62.25px" viewBox="0 0 62.828 62.25" enable-background="new 0 0 62.828 62.25" xml:space="preserve">
<g>
	<path fill="#FFFFFF" stroke="#CFCECE" stroke-width="1.5972" stroke-miterlimit="10" d="M60.403,55.206
		c0,2.647-2.146,4.792-4.791,4.792H7.697c-2.646,0-4.792-2.145-4.792-4.792V7.292c0-2.647,2.146-4.792,4.792-4.792h47.915
		c2.645,0,4.791,2.145,4.791,4.792V55.206z"/>
	<polygon fill="#F7EC15" stroke="#898989" stroke-width="0.5" stroke-miterlimit="10" points="30.118,31.253 23.625,40.333 
		30.5,40.333 28.209,44.97 33.173,44.97 32.027,54.823 41.194,42.844 36.23,42.844 37.376,38.208 33.557,37.628 41.194,30.288 	"/>
	<path fill="#A5A4A4" stroke="#898989" stroke-miterlimit="10" d="M13.222,17.607c-2.219,1.014-2.997-0.916-3.493,2.293
		c-0.688,4.452,3.885,3.439,6.856,3.577c-1.604,1.417-3.316,2.339-5.293,3.257c-1.166,0.541-3.322,1.318-3.559,2.942
		c-0.319,2.206,4.656,1.867,6.256,0.991c-0.076,1.073-1.55,1.392-1.803,2.497c-0.597,2.61,3.215,2.576,5.045,2.573
		c2.501-0.002,4.727-0.786,7.318-0.805c1.191-0.008,3.415,0.346,3.29-1.375c-0.372-0.051-0.778-0.269-1.145-0.271
		c1.529-1.226,4.434-0.973,6.324-0.974c3.368,0,6.146,0.06,9.339-1.051c-0.047-0.785-0.322-1.243-0.81-1.765
		c2.999-1.592,12.203,0.127,13.527-3.051c1.52-3.651-6.885-4.433-1.286-6.141c1.308-0.399,1.726-0.061,2.279-1.289
		c0.456-1.01-0.021-2.5-0.806-3.081c-2.284-1.694-6.455,0.817-8.794-0.738c0.164-0.768,0.133-1.583,0.107-2.386
		c-2.74-1.054-11.379-1.092-10.872,3.146c-5.681,2.009-10.228,0.229-13.747,0.665c0.104,0.449-1.902,0.252-1.791,0.708
		c-1.96,0.091-3.93,0.689-5.805,0.074L13.222,17.607z"/>
</g>
</svg>
