<?xml version="1.0" encoding="utf-8"?>
<!-- Generator: Adobe Illustrator 16.0.0, SVG Export Plug-In . SVG Version: 6.00 Build 0)  -->
<!DOCTYPE svg PUBLIC "-//W3C//DTD SVG 1.1//EN" "http://www.w3.org/Graphics/SVG/1.1/DTD/svg11.dtd">
<svg version="1.1" id="Layer_1" xmlns="http://www.w3.org/2000/svg" xmlns:xlink="http://www.w3.org/1999/xlink" x="0px" y="0px"
	 width="123.668px" height="164px" viewBox="0 0 123.668 164" enable-background="new 0 0 123.668 164" xml:space="preserve">
<path fill="#FFFFFF" stroke="#C6C6C5" stroke-width="3" stroke-miterlimit="10" d="M120.84,153.458c0,4.391-3.302,7.95-7.375,7.95
	H10.215c-4.073,0-7.375-3.56-7.375-7.95v-143.1c0-4.391,3.302-7.95,7.375-7.95h103.25c4.073,0,7.375,3.56,7.375,7.95V153.458z"/>
<circle fill="#72C4ED" cx="45.083" cy="24.244" r="14.333"/>
<circle fill="#72C4ED" cx="80.751" cy="24.244" r="14.333"/>
<circle fill="#72C4ED" cx="100.413" cy="62.814" r="14.333"/>
<circle fill="#72C4ED" cx="100.413" cy="100.814" r="14.333"/>
<circle fill="#72C4ED" cx="80.751" cy="138.078" r="14.333"/>
<circle fill="#72C4ED" cx="45.083" cy="138.078" r="14.333"/>
<circle fill="#72C4ED" cx="24.245" cy="100.814" r="14.333"/>
<circle fill="#72C4ED" cx="24.245" cy="62.814" r="14.333"/>
<circle fill="#72C4ED" cx="61.411" cy="81.981" r="14.333"/>
</svg>
