<?xml version="1.0" encoding="utf-8"?>
<!-- Generator: Adobe Illustrator 16.0.0, SVG Export Plug-In . SVG Version: 6.00 Build 0)  -->
<!DOCTYPE svg PUBLIC "-//W3C//DTD SVG 1.1//EN" "http://www.w3.org/Graphics/SVG/1.1/DTD/svg11.dtd">
<svg version="1.1" id="Layer_1" xmlns="http://www.w3.org/2000/svg" xmlns:xlink="http://www.w3.org/1999/xlink" x="0px" y="0px"
	 width="123.668px" height="164px" viewBox="0 0 123.668 164" enable-background="new 0 0 123.668 164" xml:space="preserve">
<path fill="#FFFFFF" stroke="#C6C6C5" stroke-width="3" stroke-miterlimit="10" d="M121.174,153.457
	c0,4.391-3.302,7.951-7.375,7.951H10.549c-4.073,0-7.375-3.561-7.375-7.951V10.358c0-4.391,3.302-7.95,7.375-7.95h103.25
	c4.073,0,7.375,3.56,7.375,7.95V153.457z"/>
<rect x="10.805" y="11.693" fill="#DD4E63" width="29.194" height="29.193"/>
<rect x="47.155" y="11.694" fill="#DD4E63" width="29.194" height="29.193"/>
<rect x="83.506" y="11.694" fill="#DD4E63" width="29.194" height="29.193"/>
<rect x="28.543" y="49.626" fill="#DD4E63" width="29.194" height="29.193"/>
<rect x="65.793" y="49.626" fill="#DD4E63" width="29.194" height="29.193"/>
<rect x="65.793" y="87.502" fill="#DD4E63" width="29.194" height="29.198"/>
<rect x="28.543" y="87.502" fill="#DD4E63" width="29.194" height="29.198"/>
<rect x="10.805" y="125.074" fill="#DD4E63" width="29.194" height="29.193"/>
<rect x="47.143" y="125.07" fill="#DD4E63" width="29.194" height="29.193"/>
<rect x="83.506" y="125.07" fill="#DD4E63" width="29.194" height="29.193"/>
</svg>
