<?xml version="1.0" encoding="utf-8"?>
<!-- Generator: Adobe Illustrator 16.0.0, SVG Export Plug-In . SVG Version: 6.00 Build 0)  -->
<!DOCTYPE svg PUBLIC "-//W3C//DTD SVG 1.1//EN" "http://www.w3.org/Graphics/SVG/1.1/DTD/svg11.dtd">
<svg version="1.1" id="Layer_1" xmlns="http://www.w3.org/2000/svg" xmlns:xlink="http://www.w3.org/1999/xlink" x="0px" y="0px"
	 width="123.668px" height="164px" viewBox="0 0 123.668 164" enable-background="new 0 0 123.668 164" xml:space="preserve">
<path fill="#FFFFFF" stroke="#C6C6C5" stroke-width="3" stroke-miterlimit="10" d="M120.936,153.452c0,4.391-3.303,7.95-7.375,7.95
	H10.311c-4.073,0-7.375-3.56-7.375-7.95V10.354c0-4.391,3.302-7.95,7.375-7.95h103.25c4.072,0,7.375,3.56,7.375,7.95V153.452z"/>
<g>
	<g>
		<path fill="#DD4E63" d="M25.375,9.88v11.138h10.664v5.702H25.375v11.244h-5.912V26.72H8.799v-5.702h10.664V9.88H25.375z"/>
	</g>
	<g>
		<path fill="#DD4E63" d="M64.486,9.88v11.138H75.15v5.702H64.486v11.244h-5.912V26.72H47.91v-5.702h10.664V9.88H64.486z"/>
	</g>
	<g>
		<path fill="#DD4E63" d="M103.598,9.88v11.138h10.664v5.702h-10.664v11.244h-5.912V26.72H87.021v-5.702h10.664V9.88H103.598z"/>
	</g>
</g>
<g>
	<path fill="#DD4E63" d="M85.053,41.688v11.138h10.664v5.702H85.053v11.244h-5.912V58.528H68.477v-5.702h10.664V41.688H85.053z"/>
</g>
<g>
	<path fill="#DD4E63" d="M45.053,41.688v11.138h10.664v5.702H45.053v11.244h-5.912V58.528H28.477v-5.702h10.664V41.688H45.053z"/>
</g>
<g>
	<g>
		<path fill="#DD4E63" d="M25.375,69.261v11.138h10.664v5.702H25.375v11.244h-5.912V86.101H8.799v-5.702h10.664V69.261H25.375z"/>
	</g>
	<g>
		<path fill="#DD4E63" d="M64.486,69.261v11.138H75.15v5.702H64.486v11.244h-5.912V86.101H47.91v-5.702h10.664V69.261H64.486z"/>
	</g>
	<g>
		<path fill="#DD4E63" d="M103.598,69.261v11.138h10.664v5.702h-10.664v11.244h-5.912V86.101H87.021v-5.702h10.664V69.261H103.598z"
			/>
	</g>
</g>
<g>
	<path fill="#DD4E63" d="M85.053,98.372v11.138h10.664v5.702H85.053v11.244h-5.912v-11.244H68.477v-5.702h10.664V98.372H85.053z"/>
</g>
<g>
	<path fill="#DD4E63" d="M45.053,98.372v11.138h10.664v5.702H45.053v11.244h-5.912v-11.244H28.477v-5.702h10.664V98.372H45.053z"/>
</g>
<g>
	<g>
		<path fill="#DD4E63" d="M25.375,126.625v11.138h10.664v5.702H25.375v11.244h-5.912v-11.244H8.799v-5.702h10.664v-11.138H25.375z"
			/>
	</g>
	<g>
		<path fill="#DD4E63" d="M64.486,126.625v11.138H75.15v5.702H64.486v11.244h-5.912v-11.244H47.91v-5.702h10.664v-11.138H64.486z"/>
	</g>
	<g>
		<path fill="#DD4E63" d="M103.598,126.625v11.138h10.664v5.702h-10.664v11.244h-5.912v-11.244H87.021v-5.702h10.664v-11.138
			H103.598z"/>
	</g>
</g>
</svg>
