<?xml version="1.0" encoding="utf-8"?>
<!-- Generator: Adobe Illustrator 16.0.0, SVG Export Plug-In . SVG Version: 6.00 Build 0)  -->
<!DOCTYPE svg PUBLIC "-//W3C//DTD SVG 1.1//EN" "http://www.w3.org/Graphics/SVG/1.1/DTD/svg11.dtd">
<svg version="1.1" id="Layer_1" xmlns="http://www.w3.org/2000/svg" xmlns:xlink="http://www.w3.org/1999/xlink" x="0px" y="0px"
	 width="123.668px" height="164px" viewBox="0 0 123.668 164" enable-background="new 0 0 123.668 164" xml:space="preserve">
<path fill="#FFFFFF" stroke="#C6C6C5" stroke-width="3" stroke-miterlimit="10" d="M120.736,153.383c0,4.391-3.302,7.95-7.375,7.95
	H10.111c-4.073,0-7.375-3.56-7.375-7.95v-143.1c0-4.391,3.302-7.95,7.375-7.95h103.25c4.073,0,7.375,3.56,7.375,7.95V153.383z"/>
<polygon fill="#DD4E63" points="61.03,9.707 65.324,22.92 79.218,22.92 67.978,31.087 72.271,44.301 61.03,36.134 49.79,44.301 
	54.083,31.087 42.843,22.92 56.736,22.92 "/>
<polygon fill="#DD4E63" points="29.809,36.374 34.102,49.587 47.996,49.587 36.756,57.754 41.049,70.968 29.809,62.801 
	18.568,70.968 22.861,57.754 11.621,49.587 25.514,49.587 "/>
<polygon fill="#DD4E63" points="61.03,65.041 65.324,78.255 79.218,78.255 67.978,86.422 72.271,99.636 61.03,91.469 49.79,99.636 
	54.083,86.422 42.843,78.255 56.736,78.255 "/>
<polygon fill="#DD4E63" points="92.809,36.374 97.102,49.587 110.996,49.587 99.756,57.754 104.049,70.968 92.809,62.801 
	81.568,70.968 85.861,57.754 74.621,49.587 88.514,49.587 "/>
<polygon fill="#DD4E63" points="29.809,93.041 34.102,106.255 47.996,106.255 36.756,114.422 41.049,127.635 29.809,119.469 
	18.568,127.635 22.861,114.422 11.621,106.255 25.514,106.255 "/>
<polygon fill="#DD4E63" points="92.809,92.708 97.102,105.922 110.996,105.922 99.756,114.089 104.049,127.302 92.809,119.136 
	81.568,127.302 85.861,114.089 74.621,105.922 88.514,105.922 "/>
<polygon fill="#DD4E63" points="61.03,120.375 65.324,133.588 79.218,133.588 67.978,141.756 72.271,154.969 61.03,146.803 
	49.79,154.969 54.083,141.756 42.843,133.588 56.736,133.588 "/>
</svg>
