<?xml version="1.0" encoding="utf-8"?>
<!-- Generator: Adobe Illustrator 16.0.0, SVG Export Plug-In . SVG Version: 6.00 Build 0)  -->
<!DOCTYPE svg PUBLIC "-//W3C//DTD SVG 1.1//EN" "http://www.w3.org/Graphics/SVG/1.1/DTD/svg11.dtd">
<svg version="1.1" id="Layer_1" xmlns="http://www.w3.org/2000/svg" xmlns:xlink="http://www.w3.org/1999/xlink" x="0px" y="0px"
	 width="123.668px" height="164px" viewBox="0 0 123.668 164" enable-background="new 0 0 123.668 164" xml:space="preserve">
<path fill="#FFFFFF" stroke="#C6C6C5" stroke-width="3" stroke-miterlimit="10" d="M120.664,153.447c0,4.391-3.302,7.95-7.375,7.95
	H10.039c-4.073,0-7.375-3.56-7.375-7.95v-143.1c0-4.391,3.302-7.95,7.375-7.95h103.25c4.073,0,7.375,3.56,7.375,7.95V153.447z"/>
<polygon fill="#72C4ED" points="9.646,10.919 39.538,10.919 24.421,37.237 "/>
<polygon fill="#72C4ED" points="47.496,125.409 77.39,125.409 62.271,151.726 "/>
<polygon fill="#72C4ED" points="83.074,10.919 112.967,10.919 97.85,37.237 "/>
<polygon fill="#72C4ED" points="67.291,51.892 97.184,51.892 82.066,78.209 "/>
<polygon fill="#72C4ED" points="27.434,51.892 57.327,51.892 42.209,78.209 "/>
<polygon fill="#72C4ED" points="76.319,37.237 46.427,37.237 61.544,10.919 "/>
<polygon fill="#72C4ED" points="57.06,110.978 27.166,110.978 42.284,84.659 "/>
<polygon fill="#72C4ED" points="97.451,110.978 67.559,110.978 82.677,84.659 "/>
<polygon fill="#72C4ED" points="112.967,151.727 83.074,151.727 98.191,125.408 "/>
<polygon fill="#72C4ED" points="39.538,151.727 9.646,151.727 24.764,125.408 "/>
</svg>
