<?xml version="1.0" encoding="utf-8"?>
<!-- Generator: Adobe Illustrator 16.0.0, SVG Export Plug-In . SVG Version: 6.00 Build 0)  -->
<!DOCTYPE svg PUBLIC "-//W3C//DTD SVG 1.1//EN" "http://www.w3.org/Graphics/SVG/1.1/DTD/svg11.dtd">
<svg version="1.1" id="Layer_1" xmlns="http://www.w3.org/2000/svg" xmlns:xlink="http://www.w3.org/1999/xlink" x="0px" y="0px"
	 width="123.668px" height="164px" viewBox="0 0 123.668 164" enable-background="new 0 0 123.668 164" xml:space="preserve">
<path fill="#FFFFFF" stroke="#C6C6C5" stroke-width="3" stroke-miterlimit="10" d="M120.791,153.643c0,4.391-3.303,7.95-7.375,7.95
	H10.166c-4.073,0-7.375-3.56-7.375-7.95v-143.1c0-4.391,3.302-7.95,7.375-7.95h103.25c4.072,0,7.375,3.56,7.375,7.95V153.643z"/>
<polygon fill="#72C4ED" points="20.696,47.667 9.291,28.795 20.759,9.355 32.134,28.917 "/>
<polygon fill="#72C4ED" points="61.696,47.334 50.291,28.462 61.759,9.021 73.134,28.584 "/>
<polygon fill="#72C4ED" points="100.141,47.667 88.735,28.795 100.203,9.355 111.578,28.917 "/>
<polygon fill="#72C4ED" points="80.669,72.269 69.264,53.397 80.731,33.957 92.106,53.519 "/>
<polygon fill="#72C4ED" points="40.975,73 29.568,54.129 41.037,34.688 52.412,54.25 "/>
<polygon fill="#72C4ED" points="20.696,101.001 9.291,82.129 20.759,62.688 32.134,82.251 "/>
<polygon fill="#72C4ED" points="61.696,101.001 50.291,82.129 61.759,62.688 73.134,82.251 "/>
<polygon fill="#72C4ED" points="100.141,101.001 88.735,82.129 100.203,62.688 111.578,82.251 "/>
<polygon fill="#72C4ED" points="80.669,129.27 69.264,110.398 80.731,90.957 92.106,110.52 "/>
<polygon fill="#72C4ED" points="40.975,129.001 29.568,110.129 41.037,90.688 52.412,110.251 "/>
<polygon fill="#72C4ED" points="20.696,155.334 9.291,136.463 20.759,117.022 32.134,136.584 "/>
<polygon fill="#72C4ED" points="61.696,155.334 50.291,136.463 61.759,117.022 73.134,136.584 "/>
<polygon fill="#72C4ED" points="100.141,155.334 88.735,136.463 100.203,117.022 111.578,136.584 "/>
</svg>
