<?xml version="1.0" encoding="utf-8"?>
<!-- Generator: Adobe Illustrator 16.0.0, SVG Export Plug-In . SVG Version: 6.00 Build 0)  -->
<!DOCTYPE svg PUBLIC "-//W3C//DTD SVG 1.1//EN" "http://www.w3.org/Graphics/SVG/1.1/DTD/svg11.dtd">
<svg version="1.1" id="Layer_1" xmlns="http://www.w3.org/2000/svg" xmlns:xlink="http://www.w3.org/1999/xlink" x="0px" y="0px"
	 width="123.668px" height="164px" viewBox="0 0 123.668 164" enable-background="new 0 0 123.668 164" xml:space="preserve">
<path fill="#FFFFFF" stroke="#C6C6C5" stroke-width="3" stroke-miterlimit="10" d="M121.068,153.526
	c0,4.391-3.302,7.951-7.375,7.951H10.443c-4.073,0-7.375-3.561-7.375-7.951V10.424c0-4.391,3.302-7.95,7.375-7.95h103.25
	c4.073,0,7.375,3.56,7.375,7.95V153.526z"/>
<polygon fill="#DD4E63" points="31.765,12.996 61.657,12.996 46.54,39.314 "/>
<polygon fill="#DD4E63" points="67.765,12.996 97.657,12.996 82.54,39.314 "/>
<polygon fill="#DD4E63" points="83.923,52.473 113.815,52.473 98.698,78.791 "/>
<polygon fill="#DD4E63" points="12.298,52.473 42.191,52.473 27.073,78.791 "/>
<polygon fill="#DD4E63" points="78.521,97.52 48.628,97.52 63.745,71.202 "/>
<polygon fill="#DD4E63" points="42.191,114.788 12.298,114.788 27.416,88.491 "/>
<polygon fill="#DD4E63" points="113.815,114.788 83.923,114.788 99.041,88.491 "/>
<polygon fill="#DD4E63" points="61.657,153.056 31.765,153.056 46.882,126.737 "/>
<polygon fill="#DD4E63" points="97.657,153.056 67.765,153.056 82.882,126.737 "/>
</svg>
