<?xml version="1.0" encoding="utf-8"?>
<!-- Generator: Adobe Illustrator 16.0.0, SVG Export Plug-In . SVG Version: 6.00 Build 0)  -->
<!DOCTYPE svg PUBLIC "-//W3C//DTD SVG 1.1//EN" "http://www.w3.org/Graphics/SVG/1.1/DTD/svg11.dtd">
<svg version="1.1" id="Layer_1" xmlns="http://www.w3.org/2000/svg" xmlns:xlink="http://www.w3.org/1999/xlink" x="0px" y="0px"
	 width="62.828px" height="62.25px" viewBox="0 0 62.828 62.25" enable-background="new 0 0 62.828 62.25" xml:space="preserve">
<g>
	<path fill="#FFFFFF" stroke="#CFCECE" stroke-width="1.5972" stroke-miterlimit="10" d="M60.125,55.208
		c0,2.647-2.146,4.792-4.791,4.792H7.419c-2.646,0-4.792-2.145-4.792-4.792V7.293c0-2.647,2.146-4.792,4.792-4.792h47.915
		c2.645,0,4.791,2.145,4.791,4.792V55.208z"/>
	<g>
		<polygon fill="#C89E2D" points="31.127,18.336 33.782,5.775 33.768,18.614 38.977,6.879 36.293,19.435 43.828,9.04 38.592,20.762 
			48.123,12.161 40.565,22.539 51.677,16.107 42.126,24.686 54.332,20.706 43.206,27.113 55.973,25.755 43.758,29.709 
			56.528,31.037 43.758,32.365 55.973,36.318 43.206,34.961 54.332,41.369 42.126,37.387 51.677,45.967 40.565,39.536 
			48.123,49.914 38.592,41.312 43.828,53.035 36.293,42.639 38.977,55.195 33.768,43.46 33.782,56.299 31.127,43.737 28.473,56.299 
			28.486,43.46 23.277,55.195 25.962,42.639 18.427,53.035 23.662,41.312 14.131,49.914 21.688,39.536 10.577,45.967 20.128,37.387 
			7.922,41.369 19.048,34.961 6.281,36.318 18.496,32.365 5.727,31.037 18.496,29.709 6.281,25.755 19.048,27.113 7.922,20.706 
			20.128,24.686 10.577,16.107 21.688,22.539 14.131,12.161 23.662,20.762 18.427,9.04 25.962,19.435 23.277,6.879 28.486,18.614 
			28.473,5.775 		"/>
		<circle fill="#E4E420" cx="30.994" cy="31.303" r="12.332"/>
	</g>
</g>
</svg>
